<?xml version="1.0" standalone="no"?>
<!DOCTYPE svg PUBLIC "-//W3C//DTD SVG 20010904//EN"
 "http://www.w3.org/TR/2001/REC-SVG-20010904/DTD/svg10.dtd">
<svg version="1.0" xmlns="http://www.w3.org/2000/svg"
 width="500.000000pt" height="500.000000pt" viewBox="0 0 500.000000 500.000000"
 preserveAspectRatio="xMidYMid meet">

<g transform="translate(0.000000,500.000000) scale(0.100000,-0.100000)"
fill="#000000" stroke="none">
<path d="M0 2500 l0 -2500 2500 0 2500 0 0 2500 0 2500 -2500 0 -2500 0 0
-2500z m2335 966 c145 -67 273 -306 330 -616 37 -199 31 -571 -11 -774 -19
-92 -10 -97 10 -5 47 203 66 500 47 707 l-11 122 41 83 c139 276 321 420 477
376 35 -9 62 -28 108 -73 50 -50 66 -75 93 -144 101 -264 105 -606 10 -984
-108 -427 -328 -740 -538 -765 -94 -11 -197 60 -257 178 -36 72 -64 155 -64
193 -1 28 -4 24 -38 -38 -20 -39 -61 -97 -92 -130 -130 -140 -271 -140 -400 0
-167 184 -259 540 -247 958 11 372 98 666 247 829 93 102 194 131 295 83z"/>
<path d="M2104 2248 c-21 -18 -49 -58 -63 -88 -22 -48 -25 -69 -26 -165 0 -94
4 -117 23 -160 64 -140 173 -171 256 -73 114 132 92 420 -37 498 -51 31 -109
27 -153 -12z"/>
<path d="M2931 2218 c-190 -102 -194 -518 -6 -554 47 -9 86 9 133 60 110 120
123 362 24 467 -48 52 -90 59 -151 27z"/>
<path d="M2626 1964 c-4 -14 -5 -28 -3 -31 3 -2 8 8 11 23 4 14 5 28 3 31 -3
2 -8 -8 -11 -23z"/>
</g>
</svg>
