<svg id="svg" version="1.1" xmlns="http://www.w3.org/2000/svg" xmlns:xlink="http://www.w3.org/1999/xlink" width="400" height="400" viewBox="0, 0, 400,400"><g id="svgg"><path id="path0" d="M149.600 57.268 C 132.439 60.816,120.348 75.194,116.354 96.800 C 115.602 100.869,115.605 115.538,116.359 119.600 C 116.955 122.815,117.905 126.838,118.118 127.051 C 118.189 127.123,118.466 124.800,118.733 121.891 C 121.600 90.648,136.369 70.940,159.400 67.622 C 170.016 66.093,185.835 71.732,195.395 80.454 C 199.817 84.488,198.337 81.560,192.638 75.000 C 184.232 65.324,174.681 59.546,163.269 57.232 C 160.737 56.719,152.149 56.741,149.600 57.268 M286.600 57.436 C 283.677 57.721,278.758 58.848,276.800 59.681 C 276.250 59.915,275.440 60.240,275.000 60.403 C 266.161 63.671,254.854 73.300,248.953 82.585 C 247.974 84.125,248.605 83.755,252.000 80.798 C 259.215 74.515,266.399 71.062,277.706 68.442 C 281.436 67.577,287.456 67.896,293.000 69.252 C 312.523 74.025,326.597 95.463,328.222 122.900 C 328.362 125.265,328.627 127.293,328.810 127.406 C 329.246 127.676,329.228 127.743,330.861 119.600 C 331.503 116.398,331.537 101.476,330.909 98.600 C 330.669 97.500,330.253 95.520,329.986 94.200 C 325.256 70.849,307.072 55.440,286.600 57.436 M174.788 104.397 C 160.291 106.889,147.478 125.224,141.522 152.000 C 141.302 152.990,140.959 154.520,140.760 155.400 C 136.113 175.955,135.789 205.734,139.974 227.600 C 147.199 265.342,164.393 287.058,182.656 281.505 C 186.014 280.483,186.665 279.841,183.513 280.659 C 166.503 285.071,149.923 261.969,144.632 226.484 C 143.126 216.384,143.000 214.401,143.000 200.800 C 143.000 186.801,143.130 184.909,144.849 173.800 C 148.821 148.138,159.063 128.406,171.600 122.265 C 189.625 113.436,208.345 136.833,213.954 175.200 C 215.013 182.444,215.190 184.299,215.650 193.000 C 216.114 201.801,215.685 213.197,214.526 222.800 C 214.407 223.790,214.426 224.489,214.568 224.353 C 214.850 224.084,215.633 218.830,216.468 211.600 C 217.164 205.582,217.167 180.456,216.473 175.400 C 215.500 168.313,215.547 167.993,218.356 162.400 C 244.365 110.608,279.977 123.896,279.995 185.400 C 280.011 241.594,250.221 296.649,224.446 288.059 C 223.041 287.591,221.641 287.000,221.336 286.747 C 221.031 286.493,220.691 286.375,220.582 286.484 C 220.364 286.703,222.820 288.358,224.400 289.058 C 227.084 290.246,227.925 290.400,231.719 290.394 C 242.128 290.379,252.550 282.702,262.659 267.600 C 265.331 263.609,272.000 251.189,272.000 250.204 C 272.000 250.105,272.450 249.039,273.001 247.835 C 274.503 244.551,277.625 236.209,278.402 233.400 C 278.585 232.740,279.126 230.940,279.604 229.400 C 280.083 227.860,280.637 225.925,280.837 225.100 C 281.037 224.275,281.388 222.835,281.618 221.900 C 282.514 218.258,282.817 216.934,283.152 215.200 C 283.343 214.210,283.773 212.050,284.106 210.400 C 285.089 205.534,286.067 198.790,286.832 191.600 C 287.412 186.141,287.414 165.579,286.835 161.200 C 283.914 139.124,278.942 126.917,269.791 119.355 C 253.774 106.117,231.198 122.422,215.869 158.300 C 214.903 160.560,214.661 160.455,214.039 157.500 C 212.510 150.235,209.185 138.559,207.631 135.000 C 207.439 134.560,206.976 133.480,206.602 132.600 C 198.453 113.429,186.077 102.457,174.788 104.397 M171.357 218.559 C 161.431 223.181,157.757 242.641,164.438 255.200 C 173.441 272.123,190.104 260.757,189.092 238.383 C 188.456 224.327,179.785 214.635,171.357 218.559 M237.800 221.577 C 225.103 223.756,218.348 249.092,227.055 261.881 C 232.938 270.523,244.094 266.950,249.012 254.848 C 255.687 238.419,249.345 219.596,237.800 221.577 M213.822 227.129 C 213.658 227.859,213.622 228.556,213.742 228.676 C 214.043 228.977,214.520 226.956,214.299 226.317 C 214.201 226.033,213.986 226.398,213.822 227.129 M85.200 291.048 C 81.790 294.037,77.311 297.949,75.246 299.741 C 62.099 311.152,62.754 310.312,65.372 312.400 C 66.338 313.170,68.669 315.119,70.551 316.732 C 72.433 318.344,74.136 319.563,74.334 319.441 C 74.532 319.318,76.732 316.874,79.223 314.009 C 84.151 308.340,84.344 308.211,85.153 310.039 C 86.219 312.447,91.141 319.438,93.787 322.301 C 102.495 331.727,113.424 337.993,125.200 340.314 C 126.410 340.553,128.359 340.940,129.531 341.174 C 143.142 343.896,168.347 336.462,178.600 326.700 C 179.581 325.766,178.952 325.995,175.151 327.956 C 165.355 333.010,156.350 335.181,145.131 335.193 C 139.092 335.200,137.932 335.074,131.821 333.745 C 115.788 330.260,100.514 318.230,92.534 302.800 C 91.230 300.278,91.183 300.396,95.421 295.556 C 97.523 293.155,99.143 291.031,99.022 290.835 C 98.724 290.354,92.057 285.598,91.690 285.606 C 91.531 285.610,88.610 288.058,85.200 291.048 " stroke="none" fill="#070505" fill-rule="evenodd"></path><path id="path1" d="M0.000 200.000 L 0.000 400.000 200.000 400.000 L 400.000 400.000 400.000 200.000 L 400.000 0.000 200.000 0.000 L 0.000 0.000 0.000 200.000 M160.200 56.195 C 171.644 57.724,180.251 61.842,188.890 69.923 C 192.811 73.590,200.000 82.797,200.000 84.151 C 200.000 85.199,199.571 84.955,195.996 81.874 C 189.481 76.260,183.216 72.614,176.400 70.469 C 160.800 65.559,146.722 69.063,135.632 80.614 C 130.033 86.447,124.836 95.665,122.787 103.400 C 122.612 104.060,122.208 105.590,121.888 106.800 C 121.290 109.067,120.741 111.877,120.013 116.400 C 119.679 118.473,119.388 123.392,119.213 129.900 C 119.170 131.534,117.757 129.388,117.172 126.800 C 113.549 110.753,113.901 99.685,118.475 85.900 C 123.304 71.343,135.967 59.051,148.400 56.850 C 149.830 56.597,151.810 56.231,152.800 56.038 C 155.331 55.543,155.315 55.542,160.200 56.195 M295.669 56.832 C 312.046 60.152,323.496 70.887,329.128 88.200 C 331.916 96.768,333.062 108.010,331.984 116.200 C 331.253 121.754,330.105 127.356,329.300 129.300 C 328.112 132.168,327.600 131.038,327.600 125.544 C 327.600 118.909,326.112 109.978,323.779 102.600 C 318.250 85.125,307.138 73.783,291.400 69.553 C 279.300 66.301,261.490 72.422,249.485 83.959 C 245.802 87.498,246.343 84.721,250.374 79.400 C 261.421 64.813,275.636 56.676,290.469 56.447 C 292.158 56.421,294.498 56.594,295.669 56.832 M182.093 104.132 C 182.913 104.418,183.708 104.775,183.859 104.926 C 184.010 105.077,184.364 105.200,184.645 105.200 C 189.332 105.200,199.712 116.588,205.063 127.600 C 207.651 132.926,208.196 134.263,209.956 139.600 C 212.046 145.940,212.154 146.306,213.139 150.400 C 213.590 152.270,214.218 154.880,214.536 156.200 C 214.984 158.063,215.181 158.421,215.415 157.800 C 217.793 151.498,224.791 139.012,229.328 132.975 C 248.956 106.860,269.987 107.835,281.636 135.400 C 285.924 145.548,289.005 166.200,288.248 179.730 C 287.658 190.281,286.964 197.742,286.048 203.400 C 285.834 204.720,285.469 206.970,285.238 208.400 C 285.006 209.830,284.632 211.810,284.407 212.800 C 284.182 213.790,283.825 215.500,283.615 216.600 C 283.117 219.197,281.069 227.183,280.179 230.000 C 272.714 253.609,264.321 269.296,253.291 280.251 C 239.163 294.284,225.362 295.066,215.015 282.419 C 213.797 280.929,212.800 279.528,212.800 279.304 C 212.800 279.081,212.527 278.671,212.193 278.394 C 211.312 277.663,210.275 275.303,210.536 274.624 C 210.692 274.215,210.568 274.114,210.120 274.286 C 209.612 274.481,209.522 274.322,209.678 273.502 C 209.830 272.709,209.738 272.525,209.278 272.702 C 208.815 272.880,208.727 272.693,208.885 271.865 C 209.032 271.100,208.922 270.800,208.498 270.800 C 208.083 270.800,207.964 270.502,208.098 269.800 C 208.230 269.110,208.112 268.800,207.716 268.800 C 207.327 268.800,207.183 268.446,207.267 267.700 C 207.353 266.941,207.223 266.636,206.850 266.715 C 206.454 266.799,206.352 266.458,206.471 265.443 C 206.567 264.619,206.464 264.085,206.216 264.128 C 205.987 264.168,205.800 263.548,205.800 262.750 C 205.800 261.755,205.643 261.361,205.300 261.493 C 205.025 261.599,204.800 261.396,204.800 261.043 C 204.800 259.861,204.209 260.395,203.232 262.459 C 200.837 267.522,195.835 273.999,191.661 277.442 C 175.871 290.466,156.854 280.104,146.435 252.800 C 145.722 250.930,144.972 249.087,144.769 248.705 C 144.566 248.323,144.400 247.659,144.400 247.229 C 144.400 246.799,144.220 246.336,144.000 246.200 C 143.780 246.064,143.600 245.601,143.600 245.171 C 143.600 244.741,143.429 244.077,143.220 243.695 C 143.011 243.313,142.561 241.875,142.220 240.500 C 140.581 233.890,140.338 232.891,140.014 231.400 C 138.834 225.984,137.823 219.085,136.811 209.523 C 136.281 204.527,136.279 182.858,136.806 177.514 C 138.123 164.188,139.253 157.772,142.391 145.800 C 148.044 124.236,158.903 108.942,171.903 104.235 C 173.857 103.528,180.174 103.464,182.093 104.132 M95.200 287.029 C 101.080 291.050,101.051 290.296,95.557 296.423 C 91.978 300.416,91.996 300.352,93.539 303.284 C 97.080 310.016,103.494 317.608,109.600 322.295 C 113.878 325.579,123.039 330.800,124.523 330.800 C 124.869 330.800,125.251 330.959,125.370 331.152 C 125.490 331.346,126.086 331.624,126.694 331.770 C 127.302 331.916,128.430 332.195,129.200 332.389 C 147.003 336.877,163.069 334.533,178.681 325.168 C 185.500 321.077,183.830 324.017,176.320 329.323 C 171.952 332.409,161.369 338.000,159.895 338.000 C 159.539 338.000,159.149 338.159,159.030 338.352 C 158.910 338.546,158.404 338.803,157.906 338.924 C 157.408 339.045,156.280 339.339,155.400 339.578 C 126.849 347.316,98.349 336.039,85.366 311.866 L 84.112 309.532 79.956 314.240 C 74.908 319.959,74.487 320.400,74.077 320.400 C 73.352 320.400,62.800 311.009,62.800 310.364 C 62.800 309.736,66.328 306.557,85.792 289.645 C 89.456 286.462,91.594 284.866,91.992 285.018 C 92.327 285.147,93.770 286.052,95.200 287.029 " stroke="none" fill="#cb2c2c" fill-rule="evenodd"></path><path id="path2" d="M175.200 121.374 C 162.536 124.907,151.401 142.853,146.394 167.800 C 144.548 176.996,143.641 185.795,143.321 197.600 C 143.040 207.960,143.531 215.553,145.221 227.000 C 149.831 258.216,164.173 280.788,179.400 280.791 C 187.816 280.793,196.982 273.054,203.076 260.800 C 203.678 259.590,204.312 258.540,204.485 258.467 C 204.658 258.393,204.800 257.988,204.800 257.567 C 204.800 257.145,204.980 256.800,205.200 256.800 C 205.420 256.800,205.600 257.692,205.600 258.781 C 205.600 259.871,205.761 261.176,205.958 261.681 C 206.155 262.187,206.536 263.410,206.804 264.400 C 207.572 267.236,208.131 268.633,210.409 273.400 C 217.030 287.258,228.243 292.050,239.432 285.803 C 248.593 280.689,256.323 271.283,263.805 256.150 C 265.232 253.263,266.400 250.786,266.400 250.646 C 266.400 250.506,266.778 249.538,267.240 248.496 C 268.475 245.707,268.642 245.285,269.806 242.000 C 271.763 236.477,274.110 228.329,275.163 223.400 C 276.955 215.017,277.679 210.719,278.871 201.400 C 279.564 195.977,279.567 174.888,278.875 170.600 C 277.971 164.996,277.557 162.647,277.148 160.800 C 268.144 120.130,239.068 121.028,218.845 162.600 C 216.264 167.907,215.918 168.744,216.154 169.125 C 217.314 171.003,218.085 200.168,217.200 208.732 C 215.998 220.372,215.733 222.224,214.095 230.400 C 213.544 233.150,213.006 235.897,212.900 236.505 C 212.794 237.113,212.549 237.708,212.354 237.829 C 212.159 237.949,212.000 238.429,212.000 238.895 C 212.000 239.796,211.335 242.139,210.751 243.295 C 210.558 243.677,210.400 244.341,210.400 244.771 C 210.400 245.201,210.220 245.664,210.000 245.800 C 209.780 245.936,209.600 246.476,209.600 247.000 C 209.600 247.524,209.420 248.064,209.200 248.200 C 208.980 248.336,208.800 248.876,208.800 249.400 C 208.800 249.924,208.620 250.464,208.400 250.600 C 208.180 250.736,208.000 251.197,208.000 251.624 C 208.000 252.051,207.820 252.400,207.600 252.400 C 207.380 252.400,207.200 252.141,207.200 251.824 C 207.200 251.507,207.380 251.136,207.600 251.000 C 207.820 250.864,208.000 250.223,208.000 249.576 C 208.000 248.929,208.180 248.400,208.400 248.400 C 208.620 248.400,208.800 247.961,208.800 247.424 C 208.800 246.887,208.980 246.336,209.200 246.200 C 209.420 246.064,209.600 245.344,209.600 244.600 C 209.600 243.856,209.760 243.148,209.956 243.027 C 210.151 242.906,210.408 242.221,210.527 241.504 C 210.645 240.787,210.936 239.390,211.173 238.400 C 213.911 226.974,215.191 215.000,215.191 200.800 C 215.191 187.739,214.344 178.766,212.003 167.000 C 208.351 148.651,200.273 132.408,191.433 125.637 C 185.905 121.403,180.337 119.941,175.200 121.374 M180.574 218.784 C 191.364 225.453,192.924 249.243,183.257 259.685 C 173.370 270.364,160.735 259.553,160.717 240.400 C 160.702 223.786,170.830 212.762,180.574 218.784 M242.464 221.300 C 255.250 225.171,255.276 254.846,242.502 264.615 C 231.346 273.147,220.054 259.888,223.001 241.717 C 225.264 227.760,233.895 218.706,242.464 221.300 M207.035 254.298 C 206.598 254.735,206.299 254.040,206.612 253.317 C 206.910 252.632,206.932 252.633,207.097 253.331 C 207.193 253.734,207.165 254.169,207.035 254.298 M206.400 255.376 C 206.400 255.693,206.220 256.064,206.000 256.200 C 205.780 256.336,205.600 256.077,205.600 255.624 C 205.600 255.171,205.780 254.800,206.000 254.800 C 206.220 254.800,206.400 255.059,206.400 255.376 " stroke="none" fill="#fbfbfb" fill-rule="evenodd"></path><path id="path3" d="M153.400 56.400 C 152.628 56.596,153.698 56.703,156.400 56.699 C 159.865 56.694,160.250 56.639,158.600 56.382 C 156.147 56.000,154.957 56.004,153.400 56.400 M148.400 57.200 L 147.400 57.520 148.400 57.520 C 148.950 57.520,149.850 57.376,150.400 57.200 L 151.400 56.880 150.400 56.880 C 149.850 56.880,148.950 57.024,148.400 57.200 M162.800 57.200 C 163.350 57.376,164.250 57.520,164.800 57.520 L 165.800 57.520 164.800 57.200 C 164.250 57.024,163.350 56.880,162.800 56.880 L 161.800 56.880 162.800 57.200 M286.200 57.157 C 285.540 57.301,287.484 57.415,290.520 57.410 C 293.555 57.404,295.625 57.283,295.120 57.140 C 293.934 56.804,287.759 56.816,286.200 57.157 M145.200 58.000 C 144.667 58.345,144.667 58.388,145.200 58.388 C 145.530 58.388,146.070 58.213,146.400 58.000 C 146.933 57.655,146.933 57.612,146.400 57.612 C 146.070 57.612,145.530 57.787,145.200 58.000 M166.800 58.000 C 167.130 58.213,167.760 58.378,168.200 58.366 L 169.000 58.344 168.200 58.000 C 167.004 57.486,166.005 57.486,166.800 58.000 M281.400 58.000 L 280.600 58.344 281.400 58.344 C 281.840 58.344,282.560 58.189,283.000 58.000 L 283.800 57.656 283.000 57.656 C 282.560 57.656,281.840 57.811,281.400 58.000 M297.800 58.000 C 298.996 58.514,299.995 58.514,299.200 58.000 C 298.870 57.787,298.240 57.622,297.800 57.634 L 297.000 57.656 297.800 58.000 M278.200 58.800 C 277.696 59.017,277.622 59.144,278.000 59.144 C 278.330 59.144,278.960 58.989,279.400 58.800 C 279.904 58.583,279.978 58.456,279.600 58.456 C 279.270 58.456,278.640 58.611,278.200 58.800 M300.800 58.800 C 301.130 59.013,301.670 59.188,302.000 59.188 C 302.533 59.188,302.533 59.145,302.000 58.800 C 301.670 58.587,301.130 58.412,300.800 58.412 C 300.267 58.412,300.267 58.455,300.800 58.800 M140.400 60.000 C 139.630 60.422,139.180 60.766,139.400 60.766 C 139.620 60.766,140.430 60.422,141.200 60.000 C 141.970 59.578,142.420 59.234,142.200 59.234 C 141.980 59.234,141.170 59.578,140.400 60.000 M137.093 61.814 C 136.272 62.372,135.600 62.915,135.600 63.020 C 135.600 63.125,136.320 62.735,137.200 62.153 C 138.597 61.228,139.070 60.800,138.693 60.800 C 138.634 60.800,137.914 61.256,137.093 61.814 M175.200 60.990 C 175.200 61.094,175.785 61.465,176.500 61.814 L 177.800 62.448 176.800 61.633 C 175.837 60.848,175.200 60.592,175.200 60.990 M308.000 61.790 C 308.000 61.894,308.585 62.265,309.300 62.614 L 310.600 63.248 309.600 62.433 C 308.637 61.648,308.000 61.392,308.000 61.790 M178.000 62.516 C 178.000 62.608,179.305 63.527,180.900 64.559 C 182.705 65.726,183.313 66.005,182.510 65.297 C 181.254 64.188,178.000 62.182,178.000 62.516 M266.040 64.817 C 264.052 66.146,262.312 67.419,262.171 67.646 C 261.941 68.020,268.874 63.548,269.780 62.739 C 270.862 61.773,269.256 62.665,266.040 64.817 M132.720 65.100 C 131.485 66.145,129.705 67.900,128.765 69.000 C 127.420 70.573,127.689 70.388,130.027 68.131 C 131.662 66.553,133.540 64.804,134.200 64.244 C 134.860 63.684,135.302 63.220,135.183 63.213 C 135.063 63.206,133.955 64.055,132.720 65.100 M312.199 64.475 C 313.078 65.204,315.160 67.060,316.826 68.600 L 319.856 71.400 316.628 68.190 C 314.853 66.425,312.770 64.569,312.000 64.065 C 310.713 63.224,310.729 63.257,312.199 64.475 M185.995 68.244 C 187.952 69.988,189.420 71.483,194.000 76.400 C 195.570 78.085,194.756 76.853,192.814 74.605 C 190.815 72.289,186.399 68.049,185.000 67.101 C 184.340 66.654,184.788 67.168,185.995 68.244 M159.800 67.585 C 159.010 67.796,160.366 67.922,163.767 67.953 C 166.608 67.979,168.858 67.932,168.767 67.848 C 168.393 67.507,160.914 67.288,159.800 67.585 M155.000 68.400 L 154.200 68.744 155.000 68.732 C 155.440 68.726,156.250 68.576,156.800 68.400 L 157.800 68.080 156.800 68.068 C 156.250 68.062,155.440 68.211,155.000 68.400 M170.200 68.400 C 170.640 68.589,171.360 68.744,171.800 68.744 L 172.600 68.744 171.800 68.400 C 171.360 68.211,170.640 68.056,170.200 68.056 L 169.400 68.056 170.200 68.400 M258.347 70.898 C 255.578 73.591,252.112 77.517,250.840 79.400 C 250.261 80.259,251.338 79.112,254.412 75.600 C 257.128 72.496,258.389 71.194,260.149 69.675 C 260.993 68.947,261.604 68.271,261.507 68.174 C 261.410 68.076,259.987 69.302,258.347 70.898 M278.315 68.328 C 277.938 68.478,280.334 68.600,283.639 68.600 C 286.943 68.600,289.232 68.483,288.724 68.340 C 287.492 67.993,279.183 67.984,278.315 68.328 M173.800 69.200 C 174.240 69.389,174.870 69.544,175.200 69.544 C 175.578 69.544,175.504 69.417,175.000 69.200 C 174.560 69.011,173.930 68.856,173.600 68.856 C 173.222 68.856,173.296 68.983,173.800 69.200 M274.200 69.200 L 273.400 69.544 274.200 69.544 C 274.640 69.544,275.360 69.389,275.800 69.200 L 276.600 68.856 275.800 68.856 C 275.360 68.856,274.640 69.011,274.200 69.200 M291.400 69.200 C 291.840 69.389,292.560 69.544,293.000 69.544 L 293.800 69.544 293.000 69.200 C 292.560 69.011,291.840 68.856,291.400 68.856 L 290.600 68.856 291.400 69.200 M271.400 70.000 C 270.896 70.217,270.822 70.344,271.200 70.344 C 271.530 70.344,272.160 70.189,272.600 70.000 C 273.104 69.783,273.178 69.656,272.800 69.656 C 272.470 69.656,271.840 69.811,271.400 70.000 M294.400 70.000 C 294.730 70.213,295.270 70.388,295.600 70.388 C 296.133 70.388,296.133 70.345,295.600 70.000 C 295.270 69.787,294.730 69.612,294.400 69.612 C 293.867 69.612,293.867 69.655,294.400 70.000 M147.200 71.200 C 146.430 71.622,145.980 71.966,146.200 71.966 C 146.420 71.966,147.230 71.622,148.000 71.200 C 148.770 70.778,149.220 70.434,149.000 70.434 C 148.780 70.434,147.970 70.778,147.200 71.200 M268.800 70.800 C 268.267 71.145,268.267 71.188,268.800 71.188 C 269.130 71.188,269.670 71.013,270.000 70.800 C 270.533 70.455,270.533 70.412,270.000 70.412 C 269.670 70.412,269.130 70.587,268.800 70.800 M125.425 73.100 C 124.091 74.932,122.011 78.433,122.526 77.978 C 122.970 77.585,127.172 71.200,126.987 71.200 C 126.888 71.200,126.185 72.055,125.425 73.100 M321.879 74.752 C 322.921 76.296,323.840 77.493,323.922 77.411 C 324.112 77.221,320.942 72.535,320.395 72.197 C 320.169 72.057,320.837 73.207,321.879 74.752 M141.900 74.214 C 139.330 76.100,139.481 76.370,142.100 74.571 C 144.542 72.893,144.655 72.797,144.167 72.810 C 143.965 72.815,142.945 73.447,141.900 74.214 M184.000 72.960 C 184.000 73.081,184.585 73.478,185.300 73.844 C 187.195 74.812,190.746 77.142,192.700 78.699 C 193.635 79.444,194.397 79.907,194.393 79.727 C 194.379 78.989,184.000 72.231,184.000 72.960 M302.000 72.921 C 302.000 73.012,303.035 73.751,304.300 74.563 C 305.565 75.375,306.108 75.621,305.506 75.110 C 304.318 74.100,302.000 72.653,302.000 72.921 M257.344 76.739 C 255.395 78.026,253.440 79.502,253.000 80.019 C 252.496 80.612,252.866 80.436,254.000 79.543 C 254.990 78.763,256.880 77.436,258.200 76.593 C 260.757 74.961,261.504 74.400,261.124 74.400 C 260.994 74.400,259.293 75.453,257.344 76.739 M136.328 78.938 C 133.322 81.896,130.157 85.748,129.212 87.600 C 128.500 88.996,129.154 88.238,131.284 85.200 C 132.286 83.770,134.606 81.115,136.439 79.300 C 138.272 77.485,139.669 76.000,139.543 76.000 C 139.417 76.000,137.971 77.322,136.328 78.938 M310.077 79.289 C 311.990 81.185,314.392 83.876,315.415 85.268 C 317.525 88.139,318.100 88.759,317.023 87.000 C 315.181 83.992,310.113 78.326,307.800 76.690 C 307.140 76.223,308.165 77.392,310.077 79.289 M196.175 79.332 C 196.791 80.139,197.376 80.800,197.475 80.800 C 197.753 80.800,196.021 78.460,195.509 78.144 C 195.259 77.989,195.559 78.524,196.175 79.332 M324.678 79.395 C 325.044 80.162,325.414 80.719,325.501 80.632 C 325.684 80.449,324.470 78.000,324.196 78.000 C 324.095 78.000,324.312 78.628,324.678 79.395 M196.200 81.439 C 199.166 84.333,200.521 84.681,198.386 82.000 C 197.906 81.398,197.688 81.278,197.838 81.700 C 198.189 82.691,197.842 82.578,196.114 81.139 L 194.600 79.878 196.200 81.439 M249.510 81.100 C 248.690 82.035,247.494 84.427,247.728 84.662 C 247.974 84.908,251.932 81.512,251.971 81.022 C 251.987 80.813,251.373 81.251,250.606 81.994 C 248.960 83.590,248.343 83.366,249.584 81.623 C 250.533 80.290,250.490 79.983,249.510 81.100 M119.400 84.000 C 119.250 84.473,119.217 84.950,119.327 85.060 C 119.437 85.170,119.650 84.873,119.800 84.400 C 119.950 83.927,119.983 83.450,119.873 83.340 C 119.763 83.230,119.550 83.527,119.400 84.000 M127.814 89.835 C 127.441 90.404,127.227 90.961,127.339 91.072 C 127.450 91.183,127.829 90.718,128.181 90.037 C 128.959 88.533,128.744 88.415,127.814 89.835 M328.812 89.600 C 328.812 89.930,328.987 90.470,329.200 90.800 C 329.545 91.333,329.588 91.333,329.588 90.800 C 329.588 90.470,329.413 89.930,329.200 89.600 C 328.855 89.067,328.812 89.067,328.812 89.600 M319.000 90.800 C 319.341 91.460,319.711 92.000,319.821 92.000 C 319.931 92.000,319.741 91.460,319.400 90.800 C 319.059 90.140,318.689 89.600,318.579 89.600 C 318.469 89.600,318.659 90.140,319.000 90.800 M117.073 91.353 C 116.923 91.745,116.811 92.366,116.825 92.733 C 116.842 93.175,116.981 93.074,117.237 92.434 C 117.449 91.903,117.561 91.282,117.485 91.054 C 117.409 90.827,117.224 90.961,117.073 91.353 M329.656 92.600 C 329.656 93.040,329.811 93.760,330.000 94.200 L 330.344 95.000 330.344 94.200 C 330.344 93.760,330.189 93.040,330.000 92.600 L 329.656 91.800 329.656 92.600 M116.200 95.600 C 116.046 96.510,116.011 97.344,116.121 97.454 C 116.231 97.564,116.446 96.910,116.600 96.000 C 116.754 95.090,116.789 94.256,116.679 94.146 C 116.569 94.036,116.354 94.690,116.200 95.600 M330.480 96.400 C 330.480 96.950,330.624 97.850,330.800 98.400 L 331.120 99.400 331.120 98.400 C 331.120 97.850,330.976 96.950,330.800 96.400 L 330.480 95.400 330.480 96.400 M115.454 100.656 C 115.120 103.092,115.169 113.766,115.523 115.759 C 115.675 116.617,115.800 113.152,115.800 108.059 C 115.800 102.967,115.779 98.800,115.754 98.800 C 115.729 98.800,115.594 99.635,115.454 100.656 M331.397 109.000 C 331.399 113.400,331.522 116.190,331.670 115.200 C 332.021 112.867,332.019 105.114,331.667 102.800 C 331.517 101.810,331.395 104.600,331.397 109.000 M121.800 104.000 C 121.650 104.473,121.617 104.950,121.727 105.060 C 121.837 105.170,122.050 104.873,122.200 104.400 C 122.350 103.927,122.383 103.450,122.273 103.340 C 122.163 103.230,121.950 103.527,121.800 104.000 M172.800 104.403 C 172.390 104.670,172.835 104.714,174.200 104.541 C 175.300 104.401,176.275 104.223,176.367 104.144 C 176.764 103.801,173.341 104.050,172.800 104.403 M178.033 104.144 C 178.125 104.223,179.100 104.401,180.200 104.541 C 181.565 104.714,182.010 104.670,181.600 104.403 C 181.059 104.050,177.636 103.801,178.033 104.144 M324.856 104.800 C 324.856 105.130,325.011 105.760,325.200 106.200 C 325.417 106.704,325.544 106.778,325.544 106.400 C 325.544 106.070,325.389 105.440,325.200 105.000 C 324.983 104.496,324.856 104.422,324.856 104.800 M170.400 105.200 C 169.867 105.545,169.867 105.588,170.400 105.588 C 170.730 105.588,171.270 105.413,171.600 105.200 C 172.133 104.855,172.133 104.812,171.600 104.812 C 171.270 104.812,170.730 104.987,170.400 105.200 M182.800 105.200 C 183.130 105.413,183.670 105.588,184.000 105.588 C 184.533 105.588,184.533 105.545,184.000 105.200 C 183.670 104.987,183.130 104.812,182.800 104.812 C 182.267 104.812,182.267 104.855,182.800 105.200 M121.029 107.029 C 120.881 107.615,120.838 108.172,120.932 108.266 C 121.027 108.360,121.224 107.958,121.371 107.371 C 121.519 106.785,121.562 106.228,121.468 106.134 C 121.373 106.040,121.176 106.442,121.029 107.029 M166.400 107.233 L 165.400 108.048 166.700 107.414 C 167.415 107.065,168.000 106.694,168.000 106.590 C 168.000 106.192,167.363 106.448,166.400 107.233 M186.400 106.579 C 186.400 106.689,186.940 107.059,187.600 107.400 C 188.260 107.741,188.800 107.931,188.800 107.821 C 188.800 107.711,188.260 107.341,187.600 107.000 C 186.940 106.659,186.400 106.469,186.400 106.579 M325.656 107.800 C 325.656 108.240,325.811 108.960,326.000 109.400 L 326.344 110.200 326.344 109.400 C 326.344 108.960,326.189 108.240,326.000 107.800 L 325.656 107.000 325.656 107.800 M163.705 108.925 C 162.993 109.406,162.408 109.947,162.405 110.127 C 162.399 110.488,164.635 108.990,165.012 108.381 C 165.334 107.860,165.196 107.917,163.705 108.925 M189.200 108.154 C 189.200 108.269,190.055 109.012,191.100 109.806 C 193.441 111.582,197.094 115.709,199.505 119.300 C 201.410 122.138,202.013 122.758,201.043 120.883 C 199.071 117.071,189.200 106.461,189.200 108.154 M120.178 110.578 C 120.027 111.381,119.994 112.127,120.104 112.237 C 120.214 112.347,120.427 111.781,120.578 110.978 C 120.728 110.175,120.762 109.428,120.652 109.318 C 120.542 109.208,120.328 109.775,120.178 110.578 M159.767 112.500 C 157.587 114.826,156.616 116.000,156.869 116.000 C 156.962 116.000,158.165 114.740,159.544 113.200 C 162.474 109.927,162.627 109.448,159.767 112.500 M326.468 111.400 C 326.474 111.840,326.624 112.650,326.800 113.200 L 327.120 114.200 327.132 113.200 C 327.138 112.650,326.989 111.840,326.800 111.400 L 326.456 110.600 326.468 111.400 M119.382 115.382 C 119.229 116.402,119.194 117.327,119.304 117.437 C 119.414 117.547,119.629 116.802,119.782 115.782 C 119.935 114.761,119.970 113.837,119.860 113.727 C 119.750 113.617,119.535 114.361,119.382 115.382 M253.400 114.800 L 252.600 115.144 253.400 115.125 C 253.840 115.114,254.740 114.968,255.400 114.800 L 256.600 114.495 255.400 114.475 C 254.740 114.465,253.840 114.611,253.400 114.800 M258.433 114.544 C 258.525 114.624,259.410 114.806,260.400 114.950 C 261.658 115.133,262.019 115.091,261.600 114.812 C 261.060 114.453,258.032 114.197,258.433 114.544 M327.270 116.400 C 327.264 116.950,327.403 118.210,327.580 119.200 L 327.900 121.000 327.910 119.200 C 327.916 118.210,327.776 116.950,327.600 116.400 L 327.280 115.400 327.270 116.400 M247.900 116.629 C 246.349 117.470,246.525 117.761,248.100 116.959 C 249.608 116.193,249.875 115.994,249.367 116.016 C 249.165 116.025,248.505 116.301,247.900 116.629 M155.944 117.100 C 154.793 118.489,154.306 119.200,154.504 119.200 C 154.614 119.200,155.186 118.570,155.773 117.800 C 156.863 116.371,156.995 115.832,155.944 117.100 M268.800 118.402 C 271.285 120.566,272.329 121.584,274.156 123.620 C 275.232 124.819,275.745 125.260,275.296 124.600 C 274.097 122.834,270.806 119.518,269.200 118.456 C 267.911 117.604,267.879 117.600,268.800 118.402 M243.362 119.262 L 242.600 120.124 243.700 119.416 C 244.834 118.686,245.049 118.400,244.462 118.400 C 244.276 118.400,243.781 118.788,243.362 119.262 M116.080 119.600 C 116.080 120.150,116.224 121.050,116.400 121.600 L 116.720 122.600 116.720 121.600 C 116.720 121.050,116.576 120.150,116.400 119.600 L 116.080 118.600 116.080 119.600 M330.622 120.222 C 330.472 121.025,330.438 121.772,330.548 121.882 C 330.658 121.992,330.872 121.425,331.022 120.622 C 331.173 119.819,331.206 119.073,331.096 118.963 C 330.986 118.853,330.773 119.419,330.622 120.222 M118.587 123.442 C 118.407 125.832,118.169 127.079,117.955 126.742 C 117.699 126.337,117.614 126.402,117.619 127.000 C 117.625 127.720,118.454 129.206,118.844 129.196 C 119.065 129.191,119.276 119.600,119.056 119.600 C 118.956 119.600,118.745 121.329,118.587 123.442 M153.508 120.500 C 153.187 120.995,152.707 121.850,152.440 122.400 C 151.760 123.803,152.994 122.306,153.841 120.700 C 154.539 119.374,154.323 119.244,153.508 120.500 M239.087 122.700 C 236.167 125.310,231.953 129.835,230.332 132.100 C 228.999 133.964,229.876 133.314,231.412 131.300 C 233.256 128.882,236.722 125.245,239.986 122.300 C 241.389 121.035,242.440 120.000,242.322 120.000 C 242.204 120.000,240.748 121.215,239.087 122.700 M175.600 120.658 C 162.066 123.356,149.220 145.555,144.849 173.800 C 143.130 184.909,143.000 186.801,143.000 200.800 C 143.000 214.401,143.126 216.384,144.632 226.484 C 149.922 261.956,166.504 285.071,183.500 280.662 C 184.972 280.280,185.629 280.251,185.762 280.562 C 185.885 280.848,186.132 280.792,186.475 280.400 C 186.764 280.070,187.270 279.800,187.600 279.800 C 187.930 279.800,188.148 279.553,188.084 279.251 C 188.008 278.896,188.191 278.788,188.602 278.945 C 189.366 279.239,196.859 272.095,198.394 269.610 C 198.941 268.724,199.526 268.000,199.694 268.000 C 199.862 268.000,200.000 267.820,200.000 267.600 C 200.000 266.842,199.371 267.203,198.693 268.350 C 197.743 269.958,192.983 274.825,190.656 276.565 C 173.542 289.372,154.993 271.961,146.798 235.400 C 144.179 223.719,142.970 210.568,143.321 197.600 C 143.641 185.762,144.543 177.022,146.394 167.800 C 151.437 142.676,162.618 124.768,175.400 121.345 C 191.144 117.129,207.089 138.426,212.800 171.300 C 214.586 181.578,215.191 189.039,215.191 200.800 C 215.191 212.561,214.586 220.022,212.800 230.300 C 212.261 233.402,211.693 236.230,211.173 238.400 C 210.936 239.390,210.645 240.787,210.527 241.504 C 210.408 242.221,210.151 242.906,209.956 243.027 C 209.760 243.148,209.600 243.856,209.600 244.600 C 209.600 245.344,209.420 246.064,209.200 246.200 C 208.980 246.336,208.800 246.887,208.800 247.424 C 208.800 247.961,208.620 248.400,208.400 248.400 C 208.180 248.400,208.000 248.929,208.000 249.576 C 208.000 250.223,207.820 250.864,207.600 251.000 C 207.380 251.136,207.200 251.507,207.200 251.824 C 207.200 252.141,207.380 252.400,207.600 252.400 C 207.820 252.400,208.000 252.051,208.000 251.624 C 208.000 251.197,208.180 250.736,208.400 250.600 C 208.620 250.464,208.800 249.924,208.800 249.400 C 208.800 248.876,208.980 248.336,209.200 248.200 C 209.420 248.064,209.600 247.524,209.600 247.000 C 209.600 246.476,209.780 245.936,210.000 245.800 C 210.220 245.664,210.400 245.201,210.400 244.771 C 210.400 244.341,210.558 243.677,210.751 243.295 C 211.335 242.139,212.000 239.796,212.000 238.895 C 212.000 238.429,212.159 237.949,212.354 237.829 C 212.549 237.708,212.794 237.113,212.900 236.505 C 213.006 235.897,213.544 233.150,214.095 230.400 C 215.733 222.224,215.998 220.372,217.200 208.732 C 218.085 200.168,217.314 171.003,216.154 169.125 C 215.918 168.744,216.264 167.907,218.845 162.600 C 239.068 121.028,268.144 120.130,277.148 160.800 C 277.557 162.647,277.971 164.996,278.875 170.600 C 279.567 174.888,279.564 195.977,278.871 201.400 C 277.679 210.719,276.955 215.017,275.163 223.400 C 274.110 228.329,271.763 236.477,269.806 242.000 C 268.642 245.285,268.475 245.707,267.240 248.496 C 266.778 249.538,266.400 250.506,266.400 250.646 C 266.400 250.786,265.232 253.263,263.805 256.150 C 249.043 286.010,230.430 296.257,216.301 282.302 C 213.467 279.503,212.953 279.452,215.314 282.204 C 217.835 285.143,219.909 287.007,221.750 287.988 C 223.307 288.818,223.344 288.822,222.400 288.043 C 221.144 287.006,221.289 287.007,224.434 288.055 C 250.221 296.649,280.011 241.608,279.995 185.400 C 279.977 123.896,244.365 110.608,218.356 162.400 C 215.547 167.993,215.500 168.313,216.473 175.400 C 217.167 180.456,217.164 205.582,216.468 211.600 C 215.633 218.830,214.850 224.084,214.568 224.353 C 214.426 224.489,214.407 223.790,214.526 222.800 C 215.685 213.197,216.114 201.801,215.650 193.000 C 215.190 184.299,215.013 182.444,213.954 175.200 C 208.838 140.205,192.696 117.251,175.600 120.658 M116.834 123.800 C 116.822 124.240,116.987 124.870,117.200 125.200 C 117.714 125.995,117.714 124.996,117.200 123.800 L 116.856 123.000 116.834 123.800 M328.070 126.500 C 327.997 130.141,328.253 130.741,329.100 128.917 C 329.715 127.594,329.804 126.259,329.215 127.189 C 328.730 127.956,328.483 127.322,328.283 124.800 C 328.204 123.810,328.108 124.575,328.070 126.500 M329.850 124.450 C 329.517 126.117,329.840 126.440,330.200 124.800 C 330.352 124.109,330.393 123.459,330.291 123.358 C 330.189 123.256,329.991 123.747,329.850 124.450 M149.779 127.242 C 148.773 129.245,148.014 130.948,148.093 131.026 C 148.171 131.104,149.081 129.466,150.115 127.384 C 151.149 125.303,151.908 123.600,151.801 123.600 C 151.695 123.600,150.785 125.239,149.779 127.242 M276.831 127.500 C 277.848 129.200,278.400 129.894,278.400 129.471 C 278.400 129.106,276.355 126.000,276.114 126.000 C 276.016 126.000,276.338 126.675,276.831 127.500 M228.723 134.300 C 227.492 135.735,223.424 142.238,224.281 141.400 C 224.788 140.905,229.632 133.600,229.453 133.600 C 229.382 133.600,229.054 133.915,228.723 134.300 M208.012 136.000 C 208.012 136.330,208.187 136.870,208.400 137.200 C 208.745 137.733,208.788 137.733,208.788 137.200 C 208.788 136.870,208.613 136.330,208.400 136.000 C 208.055 135.467,208.012 135.467,208.012 136.000 M145.000 138.400 C 144.850 138.873,144.817 139.350,144.927 139.460 C 145.037 139.570,145.250 139.273,145.400 138.800 C 145.550 138.327,145.583 137.850,145.473 137.740 C 145.363 137.630,145.150 137.927,145.000 138.400 M282.456 139.600 C 282.456 139.930,282.611 140.560,282.800 141.000 C 283.017 141.504,283.144 141.578,283.144 141.200 C 283.144 140.870,282.989 140.240,282.800 139.800 C 282.583 139.296,282.456 139.222,282.456 139.600 M144.200 140.800 C 144.050 141.273,144.017 141.750,144.127 141.860 C 144.237 141.970,144.450 141.673,144.600 141.200 C 144.750 140.727,144.783 140.250,144.673 140.140 C 144.563 140.030,144.350 140.327,144.200 140.800 M209.612 140.800 C 209.612 141.130,209.787 141.670,210.000 142.000 C 210.345 142.533,210.388 142.533,210.388 142.000 C 210.388 141.670,210.213 141.130,210.000 140.800 C 209.655 140.267,209.612 140.267,209.612 140.800 M223.000 143.200 C 222.659 143.860,222.469 144.400,222.579 144.400 C 222.689 144.400,223.059 143.860,223.400 143.200 C 223.741 142.540,223.931 142.000,223.821 142.000 C 223.711 142.000,223.341 142.540,223.000 143.200 M283.212 142.400 C 283.212 142.730,283.387 143.270,283.600 143.600 C 283.945 144.133,283.988 144.133,283.988 143.600 C 283.988 143.270,283.813 142.730,283.600 142.400 C 283.255 141.867,283.212 141.867,283.212 142.400 M143.473 142.953 C 143.323 143.345,143.211 143.966,143.225 144.333 C 143.242 144.775,143.381 144.674,143.637 144.034 C 143.849 143.503,143.961 142.882,143.885 142.654 C 143.809 142.427,143.624 142.561,143.473 142.953 M210.412 143.200 C 210.412 143.530,210.587 144.070,210.800 144.400 C 211.145 144.933,211.188 144.933,211.188 144.400 C 211.188 144.070,211.013 143.530,210.800 143.200 C 210.455 142.667,210.412 142.667,210.412 143.200 M284.034 145.200 C 284.046 145.530,284.211 146.160,284.400 146.600 L 284.744 147.400 284.766 146.600 C 284.778 146.160,284.613 145.530,284.400 145.200 C 284.055 144.667,284.015 144.667,284.034 145.200 M142.629 146.229 C 142.481 146.815,142.438 147.372,142.532 147.466 C 142.627 147.560,142.824 147.158,142.971 146.571 C 143.119 145.985,143.162 145.428,143.068 145.334 C 142.973 145.240,142.776 145.642,142.629 146.229 M211.234 146.000 C 211.246 146.330,211.411 146.960,211.600 147.400 L 211.944 148.200 211.966 147.400 C 211.978 146.960,211.813 146.330,211.600 146.000 C 211.255 145.467,211.215 145.467,211.234 146.000 M219.779 149.241 C 218.992 150.804,218.414 152.147,218.494 152.227 C 218.573 152.307,219.303 151.028,220.116 149.386 C 220.929 147.744,221.507 146.400,221.402 146.400 C 221.296 146.400,220.566 147.678,219.779 149.241 M141.829 149.029 C 141.681 149.615,141.651 150.184,141.761 150.294 C 141.871 150.404,142.081 150.015,142.229 149.429 C 142.376 148.842,142.406 148.273,142.296 148.163 C 142.186 148.053,141.976 148.442,141.829 149.029 M284.880 148.600 C 284.880 149.040,285.024 149.850,285.200 150.400 C 285.454 151.192,285.520 151.233,285.520 150.600 C 285.520 150.160,285.376 149.350,285.200 148.800 C 284.946 148.008,284.880 147.967,284.880 148.600 M212.056 148.800 C 212.056 149.130,212.211 149.760,212.400 150.200 C 212.617 150.704,212.744 150.778,212.744 150.400 C 212.744 150.070,212.589 149.440,212.400 149.000 C 212.183 148.496,212.056 148.422,212.056 148.800 M141.000 152.400 C 140.848 153.091,140.814 153.747,140.924 153.857 C 141.034 153.967,141.248 153.491,141.400 152.800 C 141.552 152.109,141.586 151.453,141.476 151.343 C 141.366 151.233,141.152 151.709,141.000 152.400 M212.856 152.200 C 212.856 152.640,213.011 153.360,213.200 153.800 L 213.544 154.600 213.544 153.800 C 213.544 153.360,213.389 152.640,213.200 152.200 L 212.856 151.400 212.856 152.200 M285.687 152.800 C 285.691 153.350,285.832 154.340,286.000 155.000 L 286.305 156.200 286.313 155.000 C 286.317 154.340,286.176 153.350,286.000 152.800 L 285.680 151.800 285.687 152.800 M140.200 156.000 C 140.048 156.691,140.014 157.347,140.124 157.457 C 140.234 157.567,140.448 157.091,140.600 156.400 C 140.752 155.709,140.786 155.053,140.676 154.943 C 140.566 154.833,140.352 155.309,140.200 156.000 M213.656 155.800 C 213.656 156.240,213.811 156.960,214.000 157.400 L 214.344 158.200 214.344 157.400 C 214.344 156.960,214.189 156.240,214.000 155.800 L 213.656 155.000 213.656 155.800 M286.470 158.400 C 286.464 158.950,286.603 160.210,286.780 161.200 L 287.100 163.000 287.110 161.200 C 287.116 160.210,286.976 158.950,286.800 158.400 L 286.480 157.400 286.470 158.400 M215.452 158.608 C 215.317 158.962,215.024 159.139,214.803 159.002 C 214.581 158.865,214.400 159.033,214.400 159.376 C 214.400 159.719,214.537 160.000,214.704 160.000 C 215.091 160.000,216.115 158.381,215.877 158.144 C 215.779 158.046,215.588 158.255,215.452 158.608 M139.382 160.182 C 139.229 161.202,139.194 162.127,139.304 162.237 C 139.414 162.347,139.629 161.602,139.782 160.582 C 139.935 159.561,139.970 158.637,139.860 158.527 C 139.750 158.417,139.535 159.161,139.382 160.182 M138.600 165.200 C 138.446 166.110,138.411 166.944,138.521 167.054 C 138.631 167.164,138.846 166.510,139.000 165.600 C 139.154 164.690,139.189 163.856,139.079 163.746 C 138.969 163.636,138.754 164.290,138.600 165.200 M287.375 176.200 C 287.371 183.137,287.467 185.784,287.645 183.600 C 287.987 179.380,287.985 171.915,287.641 168.200 C 287.498 166.654,287.379 170.237,287.375 176.200 M137.816 171.125 C 137.651 172.513,137.610 173.743,137.725 173.858 C 138.006 174.139,138.535 169.797,138.301 169.128 C 138.200 168.838,137.982 169.736,137.816 171.125 M136.999 180.074 C 136.845 182.343,136.791 184.650,136.879 185.200 C 136.968 185.750,137.187 183.985,137.366 181.279 C 137.545 178.572,137.599 176.265,137.486 176.152 C 137.373 176.040,137.154 177.804,136.999 180.074 M286.658 192.546 C 286.493 194.276,286.442 195.775,286.544 195.877 C 286.806 196.139,287.315 191.076,287.120 190.158 C 287.031 189.741,286.823 190.816,286.658 192.546 M285.785 199.785 C 285.630 201.023,285.600 202.134,285.719 202.252 C 285.837 202.370,286.061 201.454,286.215 200.215 C 286.370 198.977,286.400 197.866,286.281 197.748 C 286.163 197.630,285.939 198.546,285.785 199.785 M136.908 203.400 C 136.896 204.940,137.021 207.280,137.185 208.600 L 137.482 211.000 137.489 208.800 C 137.492 207.590,137.368 205.250,137.212 203.600 L 136.929 200.600 136.908 203.400 M285.000 205.200 C 284.846 206.110,284.811 206.944,284.921 207.054 C 285.031 207.164,285.246 206.510,285.400 205.600 C 285.554 204.690,285.589 203.856,285.479 203.746 C 285.369 203.636,285.154 204.290,285.000 205.200 M284.222 209.822 C 284.072 210.625,284.038 211.372,284.148 211.482 C 284.258 211.592,284.472 211.025,284.622 210.222 C 284.773 209.419,284.806 208.673,284.696 208.563 C 284.586 208.453,284.373 209.019,284.222 209.822 M137.669 213.600 C 137.656 214.370,137.795 215.720,137.977 216.600 L 138.308 218.200 138.331 216.800 C 138.344 216.030,138.205 214.680,138.023 213.800 L 137.692 212.200 137.669 213.600 M283.400 213.600 C 283.248 214.291,283.214 214.947,283.324 215.057 C 283.434 215.167,283.648 214.691,283.800 214.000 C 283.952 213.309,283.986 212.653,283.876 212.543 C 283.766 212.433,283.552 212.909,283.400 213.600 M282.600 217.600 C 282.448 218.291,282.414 218.947,282.524 219.057 C 282.634 219.167,282.848 218.691,283.000 218.000 C 283.152 217.309,283.186 216.653,283.076 216.543 C 282.966 216.433,282.752 216.909,282.600 217.600 M173.234 217.310 C 161.657 219.691,156.433 242.866,164.456 256.260 C 173.785 271.835,189.600 261.860,189.600 240.400 C 189.600 226.144,182.053 215.496,173.234 217.310 M179.000 218.543 C 189.531 223.469,192.707 245.006,184.682 257.076 C 176.401 269.533,163.175 262.207,161.235 244.090 C 159.503 227.911,169.204 213.961,179.000 218.543 M138.480 220.400 C 138.480 220.950,138.624 221.850,138.800 222.400 L 139.120 223.400 139.120 222.400 C 139.120 221.850,138.976 220.950,138.800 220.400 L 138.480 219.400 138.480 220.400 M281.873 220.553 C 281.723 220.945,281.611 221.566,281.625 221.933 C 281.642 222.375,281.781 222.274,282.037 221.634 C 282.249 221.103,282.361 220.482,282.285 220.254 C 282.209 220.027,282.024 220.161,281.873 220.553 M236.169 221.348 C 222.393 226.408,217.597 254.451,228.786 264.512 C 241.392 275.845,257.519 250.774,250.600 230.600 C 248.139 223.423,241.721 219.308,236.169 221.348 M243.324 222.276 C 249.186 225.245,252.744 234.916,251.550 244.636 C 248.099 272.737,223.168 274.535,223.206 246.680 C 223.228 230.753,234.077 217.593,243.324 222.276 M281.073 223.753 C 280.923 224.145,280.811 224.766,280.825 225.133 C 280.842 225.575,280.981 225.474,281.237 224.834 C 281.449 224.303,281.561 223.682,281.485 223.454 C 281.409 223.227,281.224 223.361,281.073 223.753 M139.268 225.600 C 139.262 226.150,139.411 226.960,139.600 227.400 L 139.944 228.200 139.932 227.400 C 139.926 226.960,139.776 226.150,139.600 225.600 L 139.280 224.600 139.268 225.600 M214.220 227.864 C 213.841 229.375,213.471 228.691,213.822 227.129 C 213.986 226.398,214.201 226.033,214.299 226.317 C 214.398 226.602,214.362 227.298,214.220 227.864 M280.200 227.200 C 280.050 227.673,280.017 228.150,280.127 228.260 C 280.237 228.370,280.450 228.073,280.600 227.600 C 280.750 227.127,280.783 226.650,280.673 226.540 C 280.563 226.430,280.350 226.727,280.200 227.200 M140.056 229.800 C 140.056 230.240,140.211 230.960,140.400 231.400 L 140.744 232.200 140.744 231.400 C 140.744 230.960,140.589 230.240,140.400 229.800 L 140.056 229.000 140.056 229.800 M278.600 232.400 C 278.450 232.873,278.417 233.350,278.527 233.460 C 278.637 233.570,278.850 233.273,279.000 232.800 C 279.150 232.327,279.183 231.850,279.073 231.740 C 278.963 231.630,278.750 231.927,278.600 232.400 M140.856 233.400 C 140.856 233.840,141.011 234.560,141.200 235.000 L 141.544 235.800 141.544 235.000 C 141.544 234.560,141.389 233.840,141.200 233.400 L 140.856 232.600 140.856 233.400 M141.612 236.800 C 141.612 237.130,141.787 237.670,142.000 238.000 C 142.345 238.533,142.388 238.533,142.388 238.000 C 142.388 237.670,142.213 237.130,142.000 236.800 C 141.655 236.267,141.612 236.267,141.612 236.800 M277.000 237.200 C 276.850 237.673,276.817 238.150,276.927 238.260 C 277.037 238.370,277.250 238.073,277.400 237.600 C 277.550 237.127,277.583 236.650,277.473 236.540 C 277.363 236.430,277.150 236.727,277.000 237.200 M142.456 239.600 C 142.456 239.930,142.611 240.560,142.800 241.000 C 143.017 241.504,143.144 241.578,143.144 241.200 C 143.144 240.870,142.989 240.240,142.800 239.800 C 142.583 239.296,142.456 239.222,142.456 239.600 M272.618 248.618 C 272.272 249.446,272.071 250.205,272.171 250.305 C 272.271 250.405,272.636 249.809,272.982 248.982 C 273.328 248.154,273.529 247.395,273.429 247.295 C 273.329 247.195,272.964 247.791,272.618 248.618 M270.678 253.020 C 269.209 256.014,269.345 256.369,270.846 253.460 C 271.510 252.173,271.986 251.053,271.904 250.971 C 271.823 250.889,271.271 251.811,270.678 253.020 M206.612 253.317 C 206.441 253.712,206.413 254.147,206.551 254.284 C 206.957 254.690,207.284 254.120,207.097 253.331 C 206.932 252.633,206.910 252.632,206.612 253.317 M205.600 255.624 C 205.600 256.077,205.780 256.336,206.000 256.200 C 206.220 256.064,206.400 255.693,206.400 255.376 C 206.400 255.059,206.220 254.800,206.000 254.800 C 205.780 254.800,205.600 255.171,205.600 255.624 M204.800 257.600 C 204.800 258.040,204.620 258.400,204.400 258.400 C 203.725 258.400,203.955 259.436,204.800 260.200 C 205.590 260.915,205.600 260.899,205.600 258.862 C 205.600 257.728,205.420 256.800,205.200 256.800 C 204.980 256.800,204.800 257.160,204.800 257.600 M148.800 257.343 C 148.800 257.778,151.587 263.200,151.810 263.200 C 151.920 263.200,151.357 261.895,150.558 260.300 C 149.060 257.307,148.800 256.870,148.800 257.343 M267.014 260.235 C 266.641 260.804,266.427 261.361,266.539 261.472 C 266.650 261.583,267.029 261.118,267.381 260.437 C 268.159 258.933,267.944 258.815,267.014 260.235 M205.600 262.353 C 205.600 262.793,205.780 263.264,206.000 263.400 C 206.220 263.536,206.400 263.287,206.400 262.847 C 206.400 262.407,206.220 261.936,206.000 261.800 C 205.780 261.664,205.600 261.913,205.600 262.353 M265.400 263.200 C 265.059 263.860,264.869 264.400,264.979 264.400 C 265.089 264.400,265.459 263.860,265.800 263.200 C 266.141 262.540,266.331 262.000,266.221 262.000 C 266.111 262.000,265.741 262.540,265.400 263.200 M152.550 264.600 C 152.874 265.260,153.431 266.160,153.789 266.600 C 154.397 267.348,154.401 267.322,153.850 266.200 C 153.526 265.540,152.969 264.640,152.611 264.200 C 152.003 263.452,151.999 263.478,152.550 264.600 M200.646 265.100 C 200.511 265.485,200.296 266.070,200.170 266.400 C 200.044 266.730,200.310 266.550,200.762 266.000 C 201.648 264.920,201.806 264.400,201.247 264.400 C 201.052 264.400,200.782 264.715,200.646 265.100 M206.400 264.953 C 206.400 265.283,206.580 265.664,206.800 265.800 C 207.020 265.936,207.200 265.777,207.200 265.447 C 207.200 265.117,207.020 264.736,206.800 264.600 C 206.580 264.464,206.400 264.623,206.400 264.953 M261.473 269.300 C 260.681 270.455,259.647 271.940,259.176 272.600 C 258.704 273.260,259.016 273.021,259.869 272.068 C 261.280 270.491,263.444 267.200,263.069 267.200 C 262.983 267.200,262.265 268.145,261.473 269.300 M155.675 269.486 C 157.353 271.875,162.562 277.169,164.400 278.355 C 165.553 279.099,165.485 278.988,164.015 277.729 C 161.282 275.388,158.068 272.027,156.337 269.700 C 154.394 267.089,153.873 266.920,155.675 269.486 M252.959 279.426 C 250.077 282.365,248.187 284.433,248.759 284.022 C 250.793 282.559,259.224 273.770,258.334 274.041 C 258.260 274.063,255.842 276.486,252.959 279.426 M212.493 278.400 C 212.768 278.840,213.131 279.200,213.300 279.200 C 213.469 279.200,213.382 278.840,213.107 278.400 C 212.832 277.960,212.469 277.600,212.300 277.600 C 212.131 277.600,212.218 277.960,212.493 278.400 M183.600 281.200 C 183.067 281.545,183.067 281.588,183.600 281.588 C 183.930 281.588,184.470 281.413,184.800 281.200 C 185.333 280.855,185.333 280.812,184.800 280.812 C 184.470 280.812,183.930 280.987,183.600 281.200 M172.000 282.000 C 172.330 282.213,172.960 282.378,173.400 282.366 L 174.200 282.344 173.400 282.000 C 172.204 281.486,171.205 281.486,172.000 282.000 M181.000 282.000 L 180.200 282.344 181.000 282.366 C 181.440 282.378,182.070 282.213,182.400 282.000 C 183.195 281.486,182.196 281.486,181.000 282.000 M176.100 282.687 C 176.705 282.778,177.695 282.778,178.300 282.687 C 178.905 282.595,178.410 282.520,177.200 282.520 C 175.990 282.520,175.495 282.595,176.100 282.687 M245.681 285.772 C 243.823 287.085,243.562 287.461,245.131 286.562 C 245.863 286.143,246.650 285.575,246.880 285.300 C 247.471 284.593,247.193 284.702,245.681 285.772 M90.443 286.023 C 89.917 286.461,89.557 286.890,89.643 286.976 C 89.730 287.062,90.305 286.697,90.922 286.166 C 91.540 285.635,91.900 285.206,91.722 285.213 C 91.545 285.221,90.970 285.585,90.443 286.023 M93.353 286.481 C 95.950 288.550,99.600 291.158,99.600 290.944 C 99.600 290.669,98.145 289.501,95.416 287.584 C 92.957 285.857,91.779 285.227,93.353 286.481 M84.400 291.267 C 77.773 297.066,77.680 297.147,74.394 299.984 C 72.747 301.406,71.325 302.621,71.233 302.684 C 71.142 302.748,71.150 302.883,71.251 302.985 C 71.353 303.086,72.791 301.961,74.446 300.485 C 76.101 299.008,80.004 295.585,83.118 292.878 C 88.076 288.568,89.588 287.143,89.124 287.221 C 89.056 287.232,86.930 289.053,84.400 291.267 M236.800 290.000 C 236.267 290.345,236.267 290.388,236.800 290.388 C 237.130 290.388,237.670 290.213,238.000 290.000 C 238.533 289.655,238.533 289.612,238.000 289.612 C 237.670 289.612,237.130 289.787,236.800 290.000 M229.900 290.909 C 231.313 291.180,232.687 291.180,234.100 290.909 C 236.073 290.529,235.946 290.505,232.000 290.505 C 228.054 290.505,227.927 290.529,229.900 290.909 M95.228 295.768 C 93.233 298.060,91.618 300.265,91.640 300.668 C 91.673 301.281,91.722 301.262,91.940 300.550 C 92.083 300.083,93.302 298.463,94.650 296.950 C 97.989 293.201,99.310 291.600,99.064 291.600 C 98.950 291.600,97.224 293.475,95.228 295.768 M66.900 306.484 C 64.323 308.737,63.212 309.974,63.240 310.560 C 63.280 311.399,63.280 311.399,63.540 310.575 C 63.683 310.121,65.375 308.353,67.300 306.645 C 70.302 303.982,71.169 303.110,70.700 303.224 C 70.645 303.238,68.935 304.705,66.900 306.484 M94.804 306.800 C 96.783 310.741,104.050 318.887,108.600 322.266 C 109.920 323.246,110.280 323.452,109.400 322.724 C 105.206 319.254,99.753 313.509,97.516 310.202 C 94.888 306.317,94.008 305.213,94.804 306.800 M82.729 309.958 C 82.218 310.596,80.656 312.396,79.259 313.958 C 77.861 315.521,76.871 316.789,77.059 316.774 C 77.246 316.760,78.096 315.905,78.946 314.874 C 81.728 311.502,84.056 309.187,84.431 309.419 C 84.634 309.545,84.800 309.457,84.800 309.224 C 84.800 308.404,83.648 308.813,82.729 309.958 M85.400 311.200 C 85.741 311.860,86.111 312.400,86.221 312.400 C 86.331 312.400,86.141 311.860,85.800 311.200 C 85.459 310.540,85.089 310.000,84.979 310.000 C 84.869 310.000,85.059 310.540,85.400 311.200 M64.027 311.463 C 64.042 311.648,65.257 312.781,66.727 313.979 C 68.197 315.178,69.040 315.743,68.600 315.235 C 67.461 313.919,63.995 311.060,64.027 311.463 M86.400 312.891 C 86.400 314.667,95.050 324.565,100.244 328.732 C 101.980 330.125,102.410 330.409,101.200 329.362 C 96.890 325.635,91.185 319.541,89.154 316.494 C 86.988 313.246,86.400 312.476,86.400 312.891 M69.600 316.181 C 69.600 316.442,72.018 318.644,73.303 319.552 C 74.009 320.051,74.222 319.956,75.542 318.559 L 77.000 317.015 75.516 318.370 L 74.033 319.725 71.816 317.832 C 70.597 316.790,69.600 316.048,69.600 316.181 M180.800 324.400 C 180.800 324.620,180.643 324.800,180.450 324.800 C 179.878 324.800,176.342 326.875,176.553 327.087 C 176.661 327.194,177.160 326.993,177.663 326.641 C 178.968 325.727,179.586 325.872,178.443 326.823 C 177.917 327.261,177.567 327.700,177.665 327.798 C 177.905 328.038,181.600 324.806,181.600 324.356 C 181.600 324.160,181.420 324.000,181.200 324.000 C 180.980 324.000,180.800 324.180,180.800 324.400 M113.600 325.714 C 113.600 325.955,116.706 328.000,117.071 328.000 C 117.230 328.000,117.189 327.849,116.980 327.664 C 116.352 327.108,113.600 325.521,113.600 325.714 M173.600 328.400 C 172.390 329.039,171.541 329.571,171.713 329.581 C 172.138 329.607,176.000 327.636,176.000 327.393 C 176.000 327.126,176.055 327.103,173.600 328.400 M117.600 328.187 C 117.600 328.297,118.500 328.843,119.600 329.400 C 120.700 329.957,121.600 330.323,121.600 330.213 C 121.600 330.103,120.700 329.557,119.600 329.000 C 118.500 328.443,117.600 328.077,117.600 328.187 M174.481 329.772 C 172.848 330.927,172.566 331.203,173.033 331.189 C 173.235 331.183,174.030 330.648,174.800 330.000 C 176.473 328.591,176.313 328.476,174.481 329.772 M168.000 330.800 C 167.467 331.145,167.467 331.188,168.000 331.188 C 168.330 331.188,168.870 331.013,169.200 330.800 C 169.733 330.455,169.733 330.412,169.200 330.412 C 168.870 330.412,168.330 330.587,168.000 330.800 M103.800 331.490 C 104.020 331.700,104.920 332.276,105.800 332.770 C 106.680 333.265,107.040 333.370,106.600 333.004 C 105.706 332.261,103.172 330.891,103.800 331.490 M124.400 331.600 C 124.730 331.813,125.270 331.988,125.600 331.988 C 126.133 331.988,126.133 331.945,125.600 331.600 C 125.270 331.387,124.730 331.212,124.400 331.212 C 123.867 331.212,123.867 331.255,124.400 331.600 M171.100 331.829 C 169.605 332.640,169.696 332.978,171.200 332.200 C 171.860 331.859,172.400 331.494,172.400 331.390 C 172.400 331.132,172.357 331.147,171.100 331.829 M163.400 332.400 C 162.896 332.617,162.822 332.744,163.200 332.744 C 163.530 332.744,164.160 332.589,164.600 332.400 C 165.104 332.183,165.178 332.056,164.800 332.056 C 164.470 332.056,163.840 332.211,163.400 332.400 M129.400 333.200 C 130.596 333.714,131.595 333.714,130.800 333.200 C 130.470 332.987,129.840 332.822,129.400 332.834 L 128.600 332.856 129.400 333.200 M160.600 333.200 C 160.096 333.417,160.022 333.544,160.400 333.544 C 160.730 333.544,161.360 333.389,161.800 333.200 C 162.304 332.983,162.378 332.856,162.000 332.856 C 161.670 332.856,161.040 333.011,160.600 333.200 M168.300 333.429 C 166.805 334.240,166.896 334.578,168.400 333.800 C 169.060 333.459,169.600 333.094,169.600 332.990 C 169.600 332.732,169.557 332.747,168.300 333.429 M107.600 333.787 C 107.600 333.897,108.500 334.443,109.600 335.000 C 110.700 335.557,111.600 335.923,111.600 335.813 C 111.600 335.703,110.700 335.157,109.600 334.600 C 108.500 334.043,107.600 333.677,107.600 333.787 M132.600 334.000 C 133.040 334.189,133.850 334.338,134.400 334.332 L 135.400 334.320 134.400 334.000 C 133.850 333.824,133.040 333.674,132.600 333.668 L 131.800 333.656 132.600 334.000 M156.600 334.000 L 155.800 334.344 156.600 334.332 C 157.040 334.326,157.850 334.176,158.400 334.000 L 159.400 333.680 158.400 333.668 C 157.850 333.662,157.040 333.811,156.600 334.000 M137.200 334.794 C 138.177 335.113,142.697 335.342,142.367 335.056 C 142.275 334.976,140.850 334.811,139.200 334.689 C 137.424 334.558,136.608 334.601,137.200 334.794 M150.000 334.800 L 147.800 335.070 149.800 335.112 C 150.900 335.135,152.520 335.005,153.400 334.823 L 155.000 334.492 153.600 334.511 C 152.830 334.522,151.210 334.652,150.000 334.800 M164.800 335.200 C 164.030 335.622,163.580 335.966,163.800 335.966 C 164.020 335.966,164.830 335.622,165.600 335.200 C 166.370 334.778,166.820 334.434,166.600 334.434 C 166.380 334.434,165.570 334.778,164.800 335.200 M158.000 338.000 C 157.467 338.345,157.467 338.388,158.000 338.388 C 158.330 338.388,158.870 338.213,159.200 338.000 C 159.733 337.655,159.733 337.612,159.200 337.612 C 158.870 337.612,158.330 337.787,158.000 338.000 M120.600 339.600 C 121.040 339.789,121.670 339.944,122.000 339.944 C 122.378 339.944,122.304 339.817,121.800 339.600 C 121.360 339.411,120.730 339.256,120.400 339.256 C 120.022 339.256,120.096 339.383,120.600 339.600 M152.600 339.600 C 152.096 339.817,152.022 339.944,152.400 339.944 C 152.730 339.944,153.360 339.789,153.800 339.600 C 154.304 339.383,154.378 339.256,154.000 339.256 C 153.670 339.256,153.040 339.411,152.600 339.600 M123.800 340.400 C 124.240 340.589,124.960 340.744,125.400 340.744 L 126.200 340.744 125.400 340.400 C 124.960 340.211,124.240 340.056,123.800 340.056 L 123.000 340.056 123.800 340.400 M148.800 340.400 L 147.800 340.720 148.800 340.732 C 149.350 340.738,150.160 340.589,150.600 340.400 L 151.400 340.056 150.600 340.068 C 150.160 340.074,149.350 340.224,148.800 340.400 M128.000 341.200 C 128.550 341.376,129.450 341.520,130.000 341.520 L 131.000 341.520 130.000 341.200 C 129.450 341.024,128.550 340.880,128.000 340.880 L 127.000 340.880 128.000 341.200 M143.200 341.200 L 141.800 341.495 143.200 341.507 C 143.970 341.515,145.050 341.376,145.600 341.200 L 146.600 340.880 145.600 340.893 C 145.050 340.900,143.970 341.038,143.200 341.200 M135.507 341.890 C 136.226 341.979,137.306 341.977,137.907 341.886 C 138.508 341.795,137.920 341.722,136.600 341.724 C 135.280 341.726,134.788 341.801,135.507 341.890 " stroke="none" fill="#773e3e" fill-rule="evenodd"></path><path id="path4" d="M152.800 56.038 C 151.810 56.231,149.830 56.597,148.400 56.850 C 135.967 59.051,123.304 71.343,118.475 85.900 C 113.901 99.685,113.549 110.753,117.172 126.800 C 117.757 129.388,119.170 131.534,119.213 129.900 C 119.388 123.392,119.679 118.473,120.013 116.400 C 120.741 111.877,121.290 109.067,121.888 106.800 C 122.208 105.590,122.612 104.060,122.787 103.400 C 126.917 87.811,138.943 74.195,152.400 69.874 C 156.975 68.405,164.932 68.025,171.800 68.948 L 173.400 69.163 171.800 68.737 C 169.314 68.074,159.371 67.861,156.600 68.411 C 141.017 71.506,127.053 85.786,122.387 103.400 C 122.212 104.060,121.808 105.590,121.488 106.800 C 120.885 109.085,120.325 111.957,119.617 116.400 C 119.389 117.830,119.157 121.293,119.101 124.096 C 119.045 126.899,118.895 129.194,118.768 129.196 C 118.447 129.201,117.702 127.609,117.459 126.400 C 117.349 125.850,116.995 124.140,116.674 122.600 C 110.321 92.171,125.074 61.608,148.200 57.287 C 155.743 55.878,156.564 55.865,164.000 57.049 C 164.770 57.171,165.280 57.151,165.134 57.003 C 164.869 56.736,156.344 55.572,155.200 55.646 C 154.870 55.668,153.790 55.844,152.800 56.038 M285.400 56.859 C 276.976 58.392,272.170 60.275,265.800 64.535 C 258.936 69.126,251.305 77.026,247.722 83.248 C 246.287 85.741,247.234 86.123,249.485 83.959 C 255.620 78.064,263.414 73.295,270.716 70.971 C 271.879 70.601,272.758 70.225,272.669 70.136 C 272.337 69.803,268.437 71.255,263.600 73.513 C 261.178 74.643,254.382 79.020,252.789 80.476 C 247.478 85.331,246.934 85.649,248.232 83.137 C 250.631 78.497,258.487 70.129,264.289 66.034 C 271.706 60.799,276.398 58.874,285.767 57.218 C 300.962 54.533,317.883 64.471,325.578 80.600 C 328.262 86.226,329.403 89.536,330.541 95.000 C 330.692 95.726,330.711 95.719,330.754 94.920 C 330.803 93.978,330.091 91.054,329.019 87.800 C 322.140 66.922,303.347 53.591,285.400 56.859 M166.400 57.489 C 175.181 59.070,187.755 67.875,195.425 77.813 C 198.759 82.134,200.349 85.287,198.194 83.304 C 190.854 76.550,175.373 67.694,173.747 69.319 C 173.655 69.412,175.069 69.975,176.890 70.572 C 183.321 72.679,189.712 76.459,195.996 81.874 C 202.276 87.286,201.090 83.941,193.547 74.969 C 186.296 66.345,171.835 56.932,166.330 57.254 C 165.430 57.307,165.432 57.315,166.400 57.489 M277.800 68.808 C 276.700 69.009,275.170 69.354,274.400 69.575 L 273.000 69.978 274.400 69.793 C 275.170 69.691,277.060 69.406,278.600 69.159 C 298.082 66.035,317.097 80.369,324.023 103.400 C 324.750 105.817,325.228 106.855,324.945 105.400 C 323.430 97.606,317.416 86.752,310.999 80.234 C 305.433 74.580,300.415 71.676,292.200 69.357 C 289.741 68.663,280.524 68.312,277.800 68.808 M331.055 97.800 C 331.164 98.900,331.421 101.004,331.626 102.477 C 332.318 107.431,331.985 115.194,330.825 121.200 C 328.834 131.501,328.047 132.611,327.916 125.300 L 327.831 120.600 327.699 124.800 C 327.347 135.969,330.112 130.420,331.984 116.200 C 332.706 110.719,332.269 100.162,331.181 96.800 C 330.966 96.135,330.924 96.470,331.055 97.800 M171.903 104.235 C 162.718 107.561,155.683 114.724,149.454 127.092 C 146.351 133.254,141.403 147.136,142.071 147.804 C 142.171 147.904,142.485 147.044,142.770 145.893 C 149.631 118.135,167.654 99.573,182.754 104.714 C 183.499 104.968,183.991 105.058,183.847 104.914 C 182.557 103.624,174.806 103.184,171.903 104.235 M186.203 106.257 C 194.724 110.766,200.749 118.415,207.111 132.800 C 207.549 133.790,208.649 136.850,209.556 139.600 C 211.667 146.005,211.757 146.309,212.778 150.600 C 213.249 152.580,213.807 154.851,214.017 155.646 C 214.228 156.442,214.400 157.466,214.400 157.923 C 214.400 159.404,215.201 159.296,215.842 157.729 C 216.366 156.448,218.149 152.552,218.692 151.500 C 218.777 151.335,218.756 151.200,218.644 151.200 C 218.433 151.200,216.410 155.298,215.583 157.400 L 215.111 158.600 214.535 156.200 C 211.947 145.431,212.301 146.712,209.956 139.600 C 208.196 134.263,207.651 132.926,205.063 127.600 C 199.733 116.631,189.332 105.200,184.682 105.200 C 184.420 105.200,185.105 105.676,186.203 106.257 M325.360 107.800 C 325.435 108.460,325.780 110.440,326.126 112.200 C 326.472 113.960,326.930 116.570,327.143 118.000 L 327.531 120.600 327.334 117.800 C 327.148 115.150,326.313 110.436,325.563 107.800 L 325.222 106.600 325.360 107.800 M251.281 115.018 C 243.714 117.488,236.585 123.320,229.328 132.975 C 225.451 138.134,218.366 150.099,218.882 150.616 C 218.956 150.690,219.634 149.546,220.388 148.075 C 240.476 108.877,267.636 103.219,281.236 135.400 C 281.994 137.194,284.543 145.445,284.943 147.400 C 285.077 148.052,285.116 148.020,285.154 147.228 C 285.179 146.694,285.023 145.704,284.807 145.028 C 281.641 135.126,281.945 135.959,279.964 131.800 C 273.299 117.810,262.350 111.404,251.281 115.018 M141.471 149.070 C 141.359 149.471,141.051 150.790,140.784 152.000 C 140.518 153.210,140.143 154.722,139.950 155.360 C 139.758 155.998,139.614 156.988,139.632 157.560 C 139.669 158.788,139.748 158.570,140.415 155.400 C 140.692 154.080,141.161 152.023,141.456 150.830 C 141.942 148.866,141.954 147.324,141.471 149.070 M285.350 149.200 C 286.826 157.955,287.140 160.500,287.641 167.753 C 287.897 171.467,288.013 177.227,287.899 180.553 C 287.769 184.337,287.805 185.552,287.996 183.800 C 288.827 176.157,288.189 164.221,286.333 152.700 C 286.076 151.105,285.712 149.440,285.524 149.000 C 285.232 148.318,285.206 148.347,285.350 149.200 M139.024 160.259 C 138.898 161.107,138.617 162.801,138.398 164.024 C 138.179 165.247,138.024 166.867,138.052 167.624 C 138.093 168.680,138.181 168.488,138.434 166.800 C 139.251 161.332,139.535 159.002,139.399 158.865 C 139.318 158.784,139.149 159.412,139.024 160.259 M137.459 170.688 C 137.321 171.519,137.231 173.100,137.259 174.200 C 137.297 175.723,137.387 175.392,137.635 172.814 C 137.977 169.256,137.883 168.119,137.459 170.688 M136.661 179.100 C 136.331 182.596,136.390 205.992,136.735 208.600 C 136.881 209.700,137.000 202.905,137.000 193.500 C 137.000 184.095,136.981 176.400,136.958 176.400 C 136.935 176.400,136.801 177.615,136.661 179.100 M287.276 189.600 C 287.229 191.250,287.106 193.320,287.002 194.200 L 286.812 195.800 287.221 194.200 C 287.446 193.320,287.569 191.250,287.495 189.600 L 287.361 186.600 287.276 189.600 M286.472 197.650 C 286.432 198.668,286.311 200.108,286.201 200.850 L 286.003 202.200 286.422 200.865 C 286.652 200.131,286.774 198.691,286.693 197.665 L 286.544 195.800 286.472 197.650 M285.662 203.600 C 285.622 204.370,285.496 205.450,285.383 206.000 L 285.177 207.000 285.608 206.014 C 285.844 205.471,285.970 204.391,285.886 203.614 L 285.734 202.200 285.662 203.600 M284.860 208.440 C 284.827 209.232,284.639 210.402,284.443 211.040 C 284.247 211.678,283.870 213.280,283.605 214.600 C 282.813 218.542,280.773 226.830,279.960 229.400 C 277.119 238.390,273.305 248.883,272.399 250.200 C 271.999 250.782,271.595 252.000,271.803 252.000 C 272.491 252.000,276.886 240.396,280.360 229.400 C 281.105 227.044,283.211 218.540,284.026 214.600 C 284.253 213.500,284.625 211.865,284.853 210.968 C 285.080 210.070,285.188 208.810,285.093 208.168 C 284.935 207.104,284.915 207.128,284.860 208.440 M137.247 213.033 C 137.273 214.335,137.431 215.940,137.597 216.600 C 137.764 217.261,137.808 216.272,137.694 214.400 C 137.455 210.440,137.179 209.596,137.247 213.033 M138.054 219.176 C 138.004 220.449,138.173 221.628,139.263 227.600 C 139.908 231.130,140.307 232.866,142.230 240.500 C 143.043 243.731,143.184 244.149,143.387 243.946 C 143.480 243.854,143.192 242.433,142.748 240.789 C 140.470 232.354,139.564 227.925,138.253 218.800 C 138.148 218.074,138.094 218.177,138.054 219.176 M143.628 245.076 C 143.613 245.558,143.780 246.064,144.000 246.200 C 144.473 246.492,144.473 246.101,144.000 245.000 C 143.669 244.229,143.655 244.231,143.628 245.076 M144.428 247.476 C 144.413 247.958,144.580 248.464,144.800 248.600 C 145.273 248.892,145.273 248.501,144.800 247.400 C 144.469 246.629,144.455 246.631,144.428 247.476 M145.219 249.400 C 145.123 251.071,151.055 263.243,154.330 268.096 C 164.954 283.840,179.508 287.487,191.649 277.446 C 194.812 274.830,200.664 268.000,199.742 268.000 C 199.548 268.000,198.941 268.724,198.394 269.610 C 196.764 272.250,189.673 278.884,187.200 280.084 C 171.364 287.766,156.654 277.631,146.437 252.000 C 145.780 250.350,145.231 249.180,145.219 249.400 M269.989 255.303 C 261.943 272.564,249.774 285.745,237.964 289.993 C 236.774 290.421,236.091 290.778,236.447 290.786 C 241.053 290.888,252.637 282.181,259.062 273.787 C 263.824 267.564,272.204 253.271,271.502 252.568 C 271.412 252.479,270.731 253.709,269.989 255.303 M204.000 259.938 C 204.000 260.192,204.180 260.400,204.400 260.400 C 204.620 260.400,204.800 260.670,204.800 261.000 C 204.800 261.330,204.980 261.600,205.200 261.600 C 205.841 261.600,205.664 260.982,204.800 260.200 C 204.346 259.789,204.000 259.676,204.000 259.938 M201.591 264.500 C 201.586 264.775,201.230 265.450,200.800 266.000 C 200.370 266.550,200.020 267.180,200.022 267.400 C 200.026 267.891,201.055 266.590,201.841 265.100 C 202.179 264.458,202.250 264.000,202.010 264.000 C 201.785 264.000,201.596 264.225,201.591 264.500 M211.200 277.105 C 211.200 277.309,211.602 277.819,212.093 278.238 C 212.970 278.986,212.976 278.986,212.393 278.239 C 212.067 277.820,211.859 277.374,211.930 277.249 C 212.001 277.123,211.867 276.955,211.630 276.877 C 211.394 276.798,211.200 276.900,211.200 277.105 M212.800 279.455 C 212.800 280.106,217.451 285.295,219.315 286.725 C 223.985 290.308,230.191 292.242,234.044 291.315 C 235.764 290.901,235.751 290.896,233.380 291.095 C 228.680 291.488,222.038 289.015,218.400 285.516 C 216.187 283.388,213.600 280.255,213.600 279.704 C 213.600 279.427,213.420 279.200,213.200 279.200 C 212.980 279.200,212.800 279.315,212.800 279.455 M85.792 289.645 C 66.328 306.557,62.800 309.736,62.800 310.364 C 62.800 311.009,73.352 320.400,74.077 320.400 C 74.487 320.400,74.908 319.959,79.956 314.240 L 84.112 309.532 85.366 311.866 C 92.452 325.060,107.700 336.852,122.200 340.354 C 127.890 341.728,129.616 342.001,132.131 341.928 C 134.430 341.861,134.462 341.848,132.600 341.737 C 113.901 340.626,94.372 328.088,85.659 311.600 C 84.093 308.638,84.531 308.505,80.394 313.196 C 73.431 321.092,74.328 320.680,70.890 317.556 C 70.069 316.810,68.228 315.210,66.799 314.000 C 63.278 311.020,63.200 310.939,63.200 310.279 C 63.200 309.961,64.820 308.315,66.800 306.622 C 68.780 304.929,70.625 303.331,70.900 303.072 C 71.176 302.812,72.751 301.430,74.401 300.000 C 76.050 298.571,77.490 297.310,77.600 297.198 C 77.710 297.086,80.410 294.749,83.600 292.003 C 86.790 289.257,89.848 286.603,90.396 286.105 C 90.944 285.607,91.504 285.200,91.641 285.200 C 92.259 285.200,99.600 290.506,99.600 290.952 C 99.600 291.239,95.626 295.980,93.523 298.200 C 91.704 300.122,91.675 300.501,93.139 303.284 C 97.837 312.215,105.687 320.625,114.315 325.969 C 119.816 329.376,126.099 332.331,125.384 331.174 C 125.257 330.968,124.869 330.800,124.523 330.800 C 123.039 330.800,113.878 325.579,109.600 322.295 C 103.494 317.608,97.080 310.016,93.539 303.284 C 91.996 300.352,91.978 300.416,95.557 296.423 C 100.330 291.101,100.429 290.907,98.981 289.750 C 97.268 288.382,92.702 285.291,91.992 285.018 C 91.594 284.866,89.456 286.462,85.792 289.645 M180.211 324.270 C 172.796 329.309,162.981 332.795,152.200 334.220 L 148.200 334.748 151.600 334.561 C 156.169 334.309,162.347 332.956,167.200 331.144 C 171.274 329.622,180.267 325.064,180.878 324.212 C 181.031 323.998,181.296 323.963,181.466 324.133 C 182.062 324.729,175.974 329.558,171.400 332.118 C 169.354 333.263,161.081 337.328,160.000 337.720 C 159.510 337.897,159.505 337.943,159.972 337.968 C 160.507 337.998,169.554 333.651,172.200 332.093 C 175.806 329.970,183.200 324.145,183.200 323.428 C 183.200 322.858,181.644 323.296,180.211 324.270 M126.800 332.038 C 127.350 332.291,128.430 332.643,129.200 332.820 C 134.762 334.098,136.275 334.370,138.870 334.555 L 141.800 334.765 138.200 334.216 C 134.820 333.701,132.510 333.238,129.200 332.411 C 128.430 332.219,127.350 331.953,126.800 331.820 L 125.800 331.577 126.800 332.038 M143.700 335.091 C 144.525 335.178,145.875 335.178,146.700 335.091 C 147.525 335.005,146.850 334.934,145.200 334.934 C 143.550 334.934,142.875 335.005,143.700 335.091 M157.800 338.461 C 157.140 338.677,155.340 339.188,153.800 339.595 C 152.260 340.003,151.378 340.350,151.840 340.368 C 152.302 340.386,153.202 340.241,153.840 340.047 C 154.478 339.852,155.810 339.461,156.800 339.177 C 157.790 338.893,158.771 338.512,158.980 338.330 C 159.427 337.941,159.370 337.948,157.800 338.461 M148.000 340.853 C 146.790 341.040,144.180 341.359,142.200 341.563 L 138.600 341.933 142.200 341.774 C 146.354 341.590,150.247 341.086,150.653 340.680 C 150.807 340.526,150.768 340.425,150.567 340.456 C 150.365 340.487,149.210 340.666,148.000 340.853 M135.705 342.287 C 136.314 342.379,137.214 342.377,137.705 342.282 C 138.197 342.187,137.700 342.111,136.600 342.114 C 135.500 342.117,135.097 342.195,135.705 342.287 " stroke="none" fill="#a32424" fill-rule="evenodd"></path></g></svg>
